HIERARCHY
ROOT Bip001_Pelvis
{
  OFFSET 7.937 94.8971 -8.5489
  CHANNELS 6 Xposition Yposition Zposition Zrotation Xrotation Yrotation
  JOINT Bip001_Spine
  {
    OFFSET 1.44608e-005 10.4157 -0.0118244
    CHANNELS 3 Zrotation Xrotation Yrotation
    JOINT Bip001_L_Thigh
    {
      OFFSET 11.2582 -10.4157 0.0118432
      CHANNELS 3 Zrotation Xrotation Yrotation
      JOINT Bip001_L_Calf
      {
        OFFSET -0.720717 -44.8687 0.366937
        CHANNELS 3 Zrotation Xrotation Yrotation
        JOINT Bip001_L_Foot
        {
          OFFSET -0.664439 -41.3745 -3.62995
          CHANNELS 3 Zrotation Xrotation Yrotation
          JOINT Bip001_L_Toe0
          {
            OFFSET 0.0541047 -10.4146 13.4033
            CHANNELS 3 Zrotation Xrotation Yrotation
            End Site
            {
              OFFSET -1.04503e-005 0 7.70137
            }
          }
        }
      }
    }
    JOINT Bip001_R_Thigh
    {
      OFFSET -11.2582 -10.4156 0.0118122
      CHANNELS 3 Zrotation Xrotation Yrotation
      JOINT Bip001_R_Calf
      {
        OFFSET 0.72059 -44.8687 0.36676
        CHANNELS 3 Zrotation Xrotation Yrotation
        JOINT Bip001_R_Foot
        {
          OFFSET 0.664321 -41.3745 -3.62979
          CHANNELS 3 Zrotation Xrotation Yrotation
          JOINT Bip001_R_Toe0
          {
            OFFSET -0.05417 -10.4146 13.4033
            CHANNELS 3 Zrotation Xrotation Yrotation
            End Site
            {
              OFFSET -1.04873e-005 0 7.70137
            }
          }
        }
      }
    }
    JOINT Bip001_Spine1
    {
      OFFSET 1.90638e-005 14.8539 1.10727
      CHANNELS 3 Zrotation Xrotation Yrotation
      JOINT Bip001_Spine2
      {
        OFFSET 2.28934e-005 14.7848 -1.7233
        CHANNELS 3 Zrotation Xrotation Yrotation
        JOINT Bip001_Neck
        {
          OFFSET 2.24514e-005 15.6905 -0.498826
          CHANNELS 3 Zrotation Xrotation Yrotation
          JOINT Bip001_L_Clavicle
          {
            OFFSET 6.17691 -0.000591152 0.00852867
            CHANNELS 3 Zrotation Xrotation Yrotation
            JOINT Bip001_L_UpperArm
            {
              OFFSET 11.773 -0.0611878 0.00197697
              CHANNELS 3 Zrotation Xrotation Yrotation
              JOINT Bip001_L_Forearm
              {
                OFFSET 26.4515 0.0817568 -2.19579
                CHANNELS 3 Zrotation Xrotation Yrotation
                JOINT Bip001_L_Hand
                {
                  OFFSET 32.8677 0.156744 1.67112
                  CHANNELS 3 Zrotation Xrotation Yrotation
                  JOINT Bip001_L_Finger0
                  {
                    OFFSET 6.16268 -2.25226 6.01674
                    CHANNELS 3 Zrotation Xrotation Yrotation
                    End Site
                    {
                      OFFSET 4.30499 -1.46662 0.618148
                    }
                  }
                  JOINT Bip001_L_Finger1
                  {
                    OFFSET 11.2957 -0.718374 -0.201963
                    CHANNELS 3 Zrotation Xrotation Yrotation
                    End Site
                    {
                      OFFSET 6.31952 -0.405163 -0.0802303
                    }
                  }
                }
              }
            }
          }
          JOINT Bip001_R_Clavicle
          {
            OFFSET -6.17691 -0.000574027 0.00851165
            CHANNELS 3 Zrotation Xrotation Yrotation
            JOINT Bip001_R_UpperArm
            {
              OFFSET -11.773 -0.0611516 0.00194365
              CHANNELS 3 Zrotation Xrotation Yrotation
              JOINT Bip001_R_Forearm
              {
                OFFSET -26.4514 0.0822334 -2.19736
                CHANNELS 3 Zrotation Xrotation Yrotation
                JOINT Bip001_R_Hand
                {
                  OFFSET -32.8677 0.156817 1.67144
                  CHANNELS 3 Zrotation Xrotation Yrotation
                  JOINT Bip001_R_Finger0
                  {
                    OFFSET -6.1627 -2.25224 6.0167
                    CHANNELS 3 Zrotation Xrotation Yrotation
                    End Site
                    {
                      OFFSET -4.30499 -1.46662 0.618134
                    }
                  }
                  JOINT Bip001_R_Finger1
                  {
                    OFFSET -11.2958 -0.718344 -0.201994
                    CHANNELS 3 Zrotation Xrotation Yrotation
                    End Site
                    {
                      OFFSET -6.31952 -0.405146 -0.0802475
                    }
                  }
                }
              }
            }
          }
          JOINT Bip001_Head
          {
            OFFSET 1.11782e-005 11.4912 2.09908
            CHANNELS 3 Zrotation Xrotation Yrotation
            End Site
            {
              OFFSET 2.95144e-005 21.2823 -2.83069e-005
            }
          }
        }
      }
    }
  }
}
MOTION
Frames:	13
Frame Time:	0.04
1.4604 95.501 -7.27865 -0.419494 1.60166 18.9317 -0.714258 -0.372938 0.639989 8.4332 -11.0825 6.02701 0.115071 10.1372 -7.68716 -6.91813 -0.0437026 -7.5066 0.625892 -10.0534 -0.849094 -2.95785 -4.0116 -3.10749 2.00616 15.8715 -0.796436 -5.4974 -10.2115 -22.1047 0.176959 -11.3043 -1.32294 -1.37393 -0.753665 1.28401 -1.37389 -0.753667 1.28364 1.07236 -1.28192 -8.50398 -29.2501 2.90223 -5.3191 -50.9623 36.8995 11.9988 16.9871 6.65385 -26.7591 -6.9531 -0.084023 -3.14146 -3.18055e-015 -6.36111e-015 -0 -8.82782e-032 -3.18056e-015 -1.59028e-015 1.63715 2.99362 17.5857 26.2377 -44.8223 52.0107 -32.3046 7.09347 41.9398 -20.1625 2.46808 -14.0006 -3.18055e-015 0 1.98785e-016 -3.18055e-015 0 -1.98785e-015 -3.24979 2.46831 -7.18999 
1.79115 95.4917 -7.31017 -0.460532 0.94098 16.3544 -0.49508 -0.204025 0.63433 8.64654 -10.4642 7.38356 0.184879 11.263 -7.48037 -6.75295 -1.14036 -6.79483 0.646904 -10.0289 -0.731095 -3.24235 -3.92051 -3.07838 1.79757 15.8255 -0.224009 -5.02758 -10.1165 -20.2981 -0.0461709 -11.3538 -0.995715 -0.977545 -0.41352 1.27198 -0.977539 -0.413518 1.27199 -0.190214 -1.24975 -7.65543 -28.6525 3.20635 -5.26368 -51.2835 37.524 11.792 16.7802 8.53554 -24.5246 -8.61966 -0.137978 -2.77282 -3.18055e-015 -9.54166e-015 1.59028e-015 3.53113e-031 -1.27222e-014 1.59028e-015 4.90078 3.5994 16.6245 36.9088 -47.8065 57.1856 -37.4957 9.51015 54.212 -18.7235 0.434258 -11.1448 -3.18055e-015 3.18055e-015 -3.97569e-016 -1.59028e-015 0 2.78299e-015 -2.5699 2.7197 -6.87668 
2.22534 95.4963 -7.46002 -0.403335 0.671659 13.9114 -0.34219 -0.101142 0.53327 8.52469 -9.93617 7.94048 0.102676 11.8256 -6.65898 -6.52656 -1.88654 -5.82925 0.665188 -9.99794 -0.629095 -3.74122 -4.28438 -2.83253 1.57078 16.0263 0.730739 -4.53632 -10.0577 -19.0025 -0.236017 -11.3777 -0.81122 -0.69879 -0.205561 1.06882 -0.698785 -0.205559 1.06882 -1.70841 -1.58206 -6.88035 -28.2796 3.85457 -5.10769 -51.4031 38.0408 11.7712 16.4793 9.33542 -22.8545 -9.60502 -0.385056 -2.02397 2.64834e-031 6.36111e-015 -2.38542e-015 8.82782e-032 3.18056e-015 -1.59028e-015 9.52533 4.8177 15.93 45.2022 -50.2302 58.9586 -40.1941 10.481 68.2491 -16.2286 0.314667 -8.55418 1.59028e-015 0 -2.38542e-015 -3.18055e-015 0 -0 -1.50676 3.44979 -6.78339 
2.70586 95.5303 -7.53435 -0.240582 0.31653 11.4868 -0.307424 -0.00590859 0.438919 8.37831 -9.05576 8.28463 -0.0996039 11.9662 -5.28029 -6.29362 -2.40218 -5.15887 0.674079 -9.98623 -0.580248 -4.15324 -4.45359 -1.96323 1.34889 16.0679 1.25511 -3.84248 -9.93204 -17.8757 -0.4476 -11.3886 -0.623624 -0.658527 -0.0143465 0.878639 -0.658068 -0.0143463 0.878663 -2.15821 -1.66983 -6.47456 -28.0737 4.1429 -5.28994 -52.0228 37.6735 12.009 15.6832 9.29134 -22.0713 -9.20561 -0.368667 -0.810017 -1.59028e-015 3.18055e-015 -0 0 0 -7.95139e-016 14.4896 5.78403 14.6492 45.188 -50.1075 52.873 -38.4983 9.41099 80.2256 -15.0089 0.194492 -5.68185 -3.18055e-015 -1.59028e-015 1.59028e-015 -3.18055e-015 -1.59028e-015 1.59028e-015 -1.12205 3.51119 -6.60766 
3.13762 95.5283 -7.66039 -0.328027 0.0159 9.01768 -0.247101 0.111384 0.275853 8.53334 -8.58381 8.1623 -0.580944 12.625 -3.68699 -5.97062 -3.18536 -4.11639 0.690061 -9.96546 -0.491566 -4.34103 -4.84855 -1.79852 0.927004 16.1539 2.29133 -3.2554 -9.69439 -16.4481 -0.526722 -11.4386 -0.436121 -0.552631 0.221609 0.551226 -0.552632 0.221623 0.551236 -2.02307 -1.77129 -5.98182 -27.9548 4.51704 -5.90079 -53.1273 36.7433 12.2571 15.1166 8.72083 -22.0166 -8.12849 -0.294742 -0.899441 -1.59028e-015 0 2.38542e-015 1.59028e-015 0 -0 17.733 6.46899 14.0403 38.4961 -45.4725 38.4225 -35.5524 6.63421 88.1049 -16.0489 0.651816 -1.50795 3.18055e-015 0 7.95139e-016 3.18055e-015 3.18056e-015 7.95139e-016 -1.2046 3.12275 -6.07554 
3.64347 95.5101 -7.74341 -0.345133 -0.438501 6.54728 -0.125609 0.298003 0.0548861 8.40559 -7.97925 8.93996 -0.721698 13.2654 -3.08654 -5.67791 -4.00543 -2.97353 0.704949 -9.94804 -0.409627 -4.63781 -5.2004 -0.970052 0.607652 16.3337 3.03068 -2.70823 -9.49527 -15.3164 -0.56178 -11.486 -0.276727 -0.319027 0.595868 0.108417 -0.319025 0.595865 0.108415 -2.58997 -2.1065 -5.20831 -28.1254 5.13604 -6.04513 -53.2152 37.6193 12.3073 14.4729 6.84676 -22.7434 -7.29738 -0.33709 -1.04626 8.82781e-032 6.36111e-015 -7.95139e-016 1.32417e-031 9.54167e-015 -7.95139e-016 22.0659 7.52091 13.7058 31.4566 -37.8734 23.6193 -33.3354 5.48685 92.3391 -19.1641 -0.615104 2.62306 -6.36111e-015 1.59028e-015 -0 4.41391e-032 1.59028e-015 -1.59028e-015 -0.621751 2.88487 -5.62035 
4.2103 95.492 -7.73233 -0.277526 -1.03072 4.36904 -0.0429597 0.552517 -0.136578 8.07909 -7.21842 9.284 -0.872439 13.6514 -2.47407 -5.35737 -4.74032 -1.76093 0.726681 -9.91277 -0.289298 -5.0842 -5.35477 -0.534748 0.332425 16.4814 3.74074 -2.1241 -9.3875 -14.0761 -0.61766 -11.5257 -0.117246 -0.165088 1.10523 -0.27558 -0.165086 1.10523 -0.275579 -2.98378 -2.95607 -5.08962 -28.1088 6.03036 -5.8553 -53.2736 38.6076 11.6728 14.0182 5.06301 -23.2015 -6.65524 -0.407861 -1.9254 -1.59028e-015 -3.18055e-015 2.38542e-015 2.64834e-031 -6.36111e-015 2.38542e-015 25.4941 9.05134 13.6188 28.5142 -27.7812 11.2718 -32.4124 5.34761 92.2727 -19.5939 -1.78264 4.13788 3.18055e-015 -1.59028e-015 -4.77083e-015 6.36111e-015 -3.18056e-015 -3.18055e-015 -0.201739 3.32843 -5.67875 
4.80085 95.4625 -7.69025 -0.229718 -1.65489 2.20532 -0.0248188 0.78285 -0.271194 7.76023 -6.40827 9.4904 -1.08087 14.0055 -2.01528 -4.97421 -5.49429 -0.338168 0.753549 -9.8702 -0.141295 -5.46541 -5.476 0.11084 0.094314 16.6522 4.41676 -1.6211 -9.2776 -13.022 -0.61918 -11.5593 -0.0303859 -0.132985 1.56602 -0.545131 -0.138674 1.56603 -0.545104 -3.27926 -3.52237 -5.0731 -27.6126 6.62547 -5.80798 -53.3303 39.9389 10.9065 13.4233 3.28769 -23.6291 -5.56713 -0.345509 -2.1691 -3.18055e-015 -6.36111e-015 2.38542e-015 -1.59028e-015 0 3.18055e-015 28.2733 10.2375 13.7211 30.5168 -19.1046 2.89305 -28.7762 7.28886 87.4547 -12.4877 -0.788085 2.0524 -3.18055e-015 -6.36111e-015 -7.95139e-016 -0 -6.75868e-015 -0 0.603934 3.93196 -5.9161 
5.45405 95.4586 -7.45694 -0.0139694 -2.46133 0.926974 -0.0574266 1.01894 -0.499212 7.0964 -5.3334 9.17076 -1.1873 13.9205 -1.3868 -4.61024 -5.95471 0.742096 0.768843 -9.85936 -0.0855217 -6.11381 -5.04692 -0.598809 -0.276538 16.6517 5.6175 -1.16432 -9.28762 -11.895 -0.557107 -11.6082 0.0611268 -0.190477 2.03872 -0.999631 -0.190476 2.03872 -0.99963 -3.20685 -3.69593 -5.13045 -27.6939 6.79085 -5.80776 -52.6801 40.7476 9.72585 12.8029 1.86393 -23.7783 -4.15357 -0.385251 -2.71395 1.59028e-015 0 -1.59028e-015 0 0 -2.38542e-015 30.8074 11.1125 14.0128 33.1313 -11.2749 -2.58824 -24.2874 8.62557 77.7995 -4.39402 0.177526 -3.15934 -3.97569e-016 1.09332e-015 4.77083e-015 -1.19271e-015 -1.2921e-015 6.36111e-015 0.933251 4.31461 -6.03063 
5.89563 95.458 -7.63085 -0.38341 -2.61332 -1.23547 -0.0045144 1.09331 -0.507173 7.26411 -5.11585 10.9012 -1.17806 14.5156 -1.10653 -4.38312 -6.49371 0.887968 0.774709 -9.85267 -0.10354 -5.99513 -5.4244 1.44569 -0.183837 16.2683 5.40086 -0.817669 -8.68903 -11.5571 -0.544157 -11.6288 0.115537 -0.0859233 2.18702 -1.01746 -0.085474 2.18702 -1.01738 -2.86089 -3.29611 -5.17442 -27.7727 6.41484 -6.0761 -52.1367 41.3082 8.51187 12.2112 1.05838 -23.6208 -2.58475 -0.245014 -2.69307 1.59028e-015 0 -2.38542e-015 0 0 -0 32.3609 11.3139 14.5355 37.2248 3.80388 -5.38783 -13.6032 -0.475127 64.118 0.325545 -1.15035 -11.3599 1.59028e-015 6.36111e-015 3.18055e-015 -1.59028e-015 6.36111e-015 6.36111e-015 1.00254 4.39909 -6.01381 
6.4519 95.4823 -7.55105 -0.617232 -3.13674 -3.07474 0.0569145 1.24723 -0.544594 7.0255 -4.30686 10.4158 -1.52701 14.5422 0.26451 -4.06456 -6.99381 1.79573 0.8171 -9.80319 -0.028281 -6.27298 -5.15822 1.75584 -0.311893 15.6541 5.73692 -0.210898 -8.21754 -10.3628 -0.625343 -11.6588 0.298124 0.023556 2.49434 -1.09338 0.0235559 2.49435 -1.09339 -2.96371 -2.99642 -5.08717 -27.683 6.21798 -6.32872 -51.7643 42.0652 7.88737 11.9598 -0.681789 -23.8218 -1.56693 -0.421154 -2.42268 0 3.18055e-015 -0 3.18055e-015 3.18056e-015 7.95139e-016 33.6034 11.458 15.0585 40.9948 16.3399 -6.88678 1.66535 -14.3469 54.7792 -0.570415 -1.47225 -18.7885 -2.64834e-031 -4.77083e-015 -3.18055e-015 -3.53113e-031 -6.36111e-015 -3.18055e-015 1.11678 4.70039 -5.99789 
7.03207 95.4849 -7.4856 -0.800652 -3.65154 -5.03589 0.110066 1.38986 -0.527082 6.67081 -3.48747 10.3807 -1.75921 14.5424 1.32833 -3.68923 -7.44667 2.60487 0.754658 -9.73808 0.073405 -6.62375 -5.04356 1.66711 -0.601436 15.2547 6.21363 0.492647 -7.81904 -8.82995 -0.712492 -11.6904 0.493395 0.109347 2.7792 -1.06086 0.109347 2.77921 -1.06086 -3.0639 -2.16143 -4.75453 -27.6894 5.6658 -7.02262 -51.6062 42.8829 7.73247 11.8742 -1.80961 -23.9227 -0.263362 -0.349362 -2.03723 -3.18055e-015 0 -7.95139e-016 0 0 -1.59028e-015 34.5154 11.1548 16.216 44.2743 23.3373 -8.03926 9.50231 -26.1635 46.44 2.371 -2.35612 -22.7373 9.93923e-016 -3.97569e-016 -1.59028e-015 7.95139e-016 0 -1.59028e-015 1.02469 4.55579 -5.71149 
7.56371 95.4406 -7.49572 -1.07957 -3.89425 -6.90869 0.17697 1.4918 -0.462988 6.4407 -3.20787 10.2466 -1.9375 15.0198 2.1002 -3.3702 -8.0916 3.6069 0.76281 -9.68731 0.256739 -6.79175 -5.27904 1.40674 -1.0162 15.0534 6.7444 1.14709 -7.45506 -7.29702 -0.748324 -11.7218 0.64256 0.228371 2.98265 -0.935284 0.228372 2.98265 -0.935288 -3.20142 -1.39426 -4.24958 -27.614 5.21847 -7.74704 -51.6389 44.3985 7.68961 11.7996 -3.91208 -23.8356 -0.246983 -0.543678 -1.7243 3.18055e-015 0 -1.59028e-015 4.41391e-032 3.18056e-015 -7.95139e-016 35.3247 10.736 17.0781 46.6103 28.0968 -8.67056 11.676 -34.7033 37.4134 6.10914 -2.70733 -22.2004 2.91965e-016 0 1.98785e-016 -4.03781e-017 0 1.98785e-016 0.968281 4.48383 -5.27486 
